<?xml version="1.0" standalone="no"?>
<!DOCTYPE svg PUBLIC "-//W3C//DTD SVG 20010904//EN"
 "http://www.w3.org/TR/2001/REC-SVG-20010904/DTD/svg10.dtd">
<svg version="1.0" xmlns="http://www.w3.org/2000/svg"
 width="4738.000000pt" height="4738.000000pt" viewBox="0 0 4738.000000 4738.000000"
 preserveAspectRatio="xMidYMid meet">
<metadata>
Created by potrace 1.11, written by Peter Selinger 2001-2013
</metadata>
<g transform="translate(0.000000,4738.000000) scale(0.100000,-0.100000)"
fill="#000000" stroke="none">
<path d="M32479 46236 c-2 -2 -56 -7 -119 -10 -63 -4 -131 -8 -150 -11 -19 -2
-3760 -4 -8312 -5 -5756 0 -8279 -3 -8283 -10 -5 -8 -11 -7 -20 0 -8 7 -18 9
-23 6 -6 -3 -65 -8 -133 -12 -151 -7 -192 -10 -244 -18 -22 -3 -67 -8 -100
-11 -54 -5 -88 -9 -150 -19 -11 -2 -45 -6 -75 -10 -48 -6 -227 -36 -300 -51
-117 -23 -187 -38 -200 -42 -8 -3 -22 -6 -30 -7 -33 -3 -180 -40 -180 -45 0
-3 -13 -7 -28 -8 -34 -2 -404 -112 -472 -140 -8 -4 -17 -7 -20 -7 -43 -10
-138 -52 -133 -59 3 -6 1 -7 -6 -3 -14 9 -231 -71 -247 -90 -6 -8 -13 -11 -16
-8 -3 3 -51 -15 -107 -41 -56 -25 -106 -45 -111 -45 -6 0 -10 -4 -10 -10 0 -5
-6 -10 -14 -10 -19 0 -390 -188 -394 -200 -2 -6 -12 -10 -22 -10 -9 0 -23 -7
-30 -15 -7 -8 -18 -15 -24 -15 -7 0 -22 -9 -34 -20 -12 -11 -25 -20 -29 -20
-14 0 -233 -134 -233 -142 0 -4 -6 -8 -13 -8 -7 0 -23 -9 -35 -20 -12 -12 -22
-18 -22 -16 0 3 -39 -22 -87 -56 -49 -34 -108 -75 -133 -92 -25 -17 -50 -35
-56 -41 -6 -5 -22 -17 -34 -25 -50 -33 -95 -73 -93 -81 2 -4 -4 -6 -12 -3 -8
4 -17 -1 -21 -10 -3 -9 -12 -16 -20 -16 -8 0 -14 -7 -14 -15 0 -8 -4 -14 -8
-12 -5 1 -28 -14 -51 -33 -23 -19 -51 -42 -61 -50 -74 -60 -89 -74 -83 -83 3
-6 1 -7 -5 -3 -6 3 -22 -4 -35 -16 -14 -13 -53 -48 -86 -78 -68 -61 -162 -149
-261 -245 -112 -109 -345 -364 -450 -495 -25 -30 -48 -57 -51 -60 -18 -15
-329 -435 -329 -445 0 -3 -17 -29 -39 -58 -21 -29 -47 -68 -57 -87 -10 -19
-26 -42 -35 -52 -9 -10 -22 -31 -29 -46 -8 -15 -21 -35 -29 -44 -8 -10 -10
-18 -5 -18 5 0 4 -4 -2 -8 -12 -7 -114 -176 -114 -187 0 -4 -9 -18 -20 -32
-11 -14 -17 -29 -14 -34 3 -5 1 -9 -4 -9 -14 0 -54 -89 -46 -101 4 -8 3 -9 -4
-5 -14 8 -36 -30 -26 -46 4 -6 3 -8 -3 -5 -9 6 -103 -180 -188 -373 -21 -47
-46 -104 -56 -127 -11 -24 -19 -45 -19 -48 0 -4 -8 -25 -18 -48 -45 -100 -63
-157 -56 -168 4 -7 3 -9 -3 -6 -12 7 -148 -387 -139 -402 4 -5 2 -11 -3 -13
-8 -3 -55 -155 -67 -218 -3 -14 -9 -38 -14 -55 -8 -25 -62 -262 -75 -328 -2
-9 -7 -22 -11 -29 -5 -7 -3 -8 5 -3 10 6 11 3 2 -13 -6 -11 -13 -36 -15 -54
-3 -18 -9 -55 -15 -83 -5 -27 -12 -68 -15 -90 -4 -23 -8 -50 -10 -60 -5 -28
-16 -111 -21 -164 -2 -24 -7 -52 -11 -63 -5 -16 -3 -19 7 -12 11 6 12 5 3 -7
-12 -15 -19 -63 -29 -199 -4 -47 -8 -107 -10 -135 -3 -27 -7 -146 -11 -264 -5
-176 -3 -212 8 -205 10 6 11 5 2 -7 -13 -16 -13 -68 0 -88 6 -9 5 -12 -1 -8
-6 4 -10 -6 -11 -24 0 -20 3 -27 11 -22 9 5 9 3 1 -8 -11 -15 -11 -55 1 -214
4 -55 7 -110 6 -123 0 -13 4 -20 9 -17 6 3 7 -1 4 -10 -11 -28 6 -186 19 -178
8 5 8 2 0 -9 -7 -8 -10 -17 -7 -21 3 -3 7 -25 9 -49 5 -63 24 -195 39 -273 13
-64 17 -125 10 -125 -5 0 -43 6 -84 14 -76 15 -120 22 -199 31 -23 3 -55 7
-70 9 -14 3 -48 7 -76 11 -27 3 -66 7 -85 10 -19 2 -71 7 -115 10 -44 3 -88 8
-97 11 -11 3 -18 0 -18 -8 0 -9 -2 -10 -8 -2 -13 21 -469 32 -772 18 -80 -4
-155 -7 -167 -7 -13 -1 -23 -3 -23 -6 0 -4 -28 -6 -63 -7 -65 -1 -182 -11
-232 -20 -16 -3 -46 -7 -65 -9 -55 -6 -167 -21 -210 -29 -14 -3 -43 -7 -65
-11 -22 -3 -47 -7 -55 -10 -8 -2 -31 -6 -50 -9 -19 -3 -46 -8 -60 -11 -14 -2
-50 -10 -80 -16 -81 -16 -404 -97 -485 -121 -38 -12 -77 -23 -85 -24 -21 -4
-320 -102 -345 -113 -27 -12 -89 -36 -95 -36 -21 -3 -50 -18 -50 -26 0 -6 -4
-8 -9 -5 -14 9 -111 -35 -104 -47 4 -6 1 -7 -6 -3 -13 9 -33 2 -156 -52 -235
-102 -395 -183 -388 -196 3 -5 1 -6 -5 -2 -11 6 -133 -53 -232 -113 -19 -11
-55 -32 -80 -45 -106 -58 -219 -133 -213 -141 5 -4 3 -5 -3 -2 -6 3 -74 -35
-150 -86 -219 -147 -235 -158 -228 -169 4 -6 2 -8 -4 -4 -10 6 -143 -87 -150
-105 -2 -5 -10 -9 -17 -9 -8 0 -18 -6 -22 -13 -4 -6 -35 -32 -68 -57 -33 -25
-64 -50 -70 -56 -5 -6 -27 -23 -47 -39 -21 -15 -35 -32 -31 -38 3 -5 2 -7 -4
-4 -5 3 -30 -13 -56 -36 -25 -23 -69 -62 -98 -87 -29 -25 -85 -76 -125 -115
-40 -38 -83 -79 -96 -91 -23 -20 -197 -202 -270 -282 -20 -22 -34 -43 -31 -46
4 -3 -1 -6 -10 -6 -9 0 -17 -3 -17 -7 0 -5 -15 -24 -33 -44 -17 -20 -43 -49
-56 -65 -13 -16 -36 -43 -50 -60 -14 -16 -37 -45 -51 -64 -14 -18 -30 -38 -36
-44 -6 -6 -43 -54 -82 -106 -39 -52 -77 -101 -82 -108 -6 -7 -8 -17 -4 -24 4
-7 3 -8 -4 -4 -6 4 -19 -6 -29 -21 -10 -15 -23 -34 -30 -41 -7 -8 -10 -19 -6
-25 3 -7 3 -9 -2 -5 -8 8 -51 -51 -47 -64 1 -5 -2 -8 -7 -8 -7 0 -77 -100
-126 -182 -5 -9 -49 -81 -97 -161 -48 -79 -91 -152 -94 -163 -4 -10 -11 -21
-14 -24 -8 -5 -131 -244 -133 -257 0 -4 -7 -14 -14 -21 -7 -7 -13 -22 -13 -33
0 -10 -4 -19 -9 -19 -8 0 -22 -32 -25 -55 -1 -5 -4 -12 -7 -15 -5 -5 -27 -51
-64 -135 -8 -16 -25 -56 -39 -88 -14 -32 -26 -59 -26 -62 0 -2 -5 -16 -12 -32
-6 -15 -12 -30 -13 -33 -1 -3 -9 -22 -18 -44 -9 -21 -17 -44 -17 -52 0 -7 -4
-15 -9 -18 -5 -3 -11 -16 -14 -28 -3 -13 -26 -81 -52 -153 -25 -71 -48 -137
-50 -145 -2 -8 -16 -53 -30 -100 -25 -80 -40 -131 -50 -173 -2 -10 -13 -51
-24 -91 -11 -40 -22 -83 -25 -97 -3 -13 -15 -64 -26 -113 -11 -49 -22 -101
-24 -116 -2 -15 -5 -31 -8 -36 -3 -5 -9 -31 -12 -58 -4 -27 -9 -52 -11 -55 -1
-3 -6 -28 -9 -56 -3 -27 -8 -61 -11 -75 -3 -14 -8 -36 -10 -50 -2 -14 -6 -38
-9 -55 -3 -16 -7 -52 -11 -80 -3 -27 -7 -62 -10 -76 -3 -14 -7 -55 -10 -90 -2
-35 -7 -75 -9 -89 -3 -14 -8 -70 -11 -125 -4 -55 -9 -118 -12 -140 -2 -22 -6
-3777 -7 -8345 -2 -4568 -6 -8352 -10 -8410 -4 -58 -9 -124 -12 -148 -3 -33
-1 -41 8 -36 10 6 10 4 2 -7 -7 -9 -10 -61 -9 -139 1 -69 3 -125 4 -125 1 0 3
-34 6 -75 5 -107 15 -202 21 -212 3 -4 11 -5 17 -1 7 4 7 0 -1 -10 -10 -12
-12 -28 -6 -59 4 -24 9 -52 10 -63 3 -25 12 -74 18 -100 116 -528 252 -907
504 -1407 60 -120 109 -205 115 -201 5 3 7 2 4 -4 -7 -11 14 -63 26 -63 4 0 7
-6 7 -14 0 -8 6 -21 13 -28 6 -7 22 -33 35 -58 13 -25 32 -58 42 -75 11 -16
27 -43 36 -59 9 -16 20 -34 25 -40 6 -6 35 -51 66 -101 73 -117 109 -165 117
-160 3 3 4 2 1 -1 -6 -8 27 -64 37 -64 4 0 8 -4 8 -10 0 -12 88 -134 101 -138
5 -2 9 -8 9 -13 0 -18 153 -208 163 -202 6 3 7 1 3 -5 -6 -10 23 -48 163 -212
120 -139 222 -249 362 -389 185 -185 409 -393 475 -440 19 -13 34 -28 34 -33
0 -4 5 -8 11 -8 7 0 19 -8 28 -18 46 -51 593 -452 616 -452 4 0 21 -10 38 -23
18 -12 41 -27 52 -34 147 -88 253 -151 265 -157 8 -3 47 -24 85 -46 74 -42
195 -103 207 -104 4 -1 13 -7 19 -13 7 -7 16 -13 21 -13 4 0 51 -21 105 -46
54 -25 127 -57 163 -72 36 -14 75 -32 87 -40 13 -8 23 -12 23 -9 0 3 25 -5 55
-18 30 -14 55 -22 55 -19 0 4 6 1 13 -5 8 -6 22 -12 33 -14 10 -1 25 -6 32
-11 47 -29 590 -186 654 -189 20 -1 34 -5 32 -8 -3 -6 19 -11 106 -25 26 -4
74 -15 90 -19 17 -5 55 -11 120 -19 25 -3 55 -8 66 -10 58 -12 104 -18 159
-21 33 -2 67 -6 75 -9 30 -12 388 -29 590 -29 201 0 447 15 640 40 25 3 59 7
75 9 17 1 30 3 30 4 0 1 11 3 25 5 56 6 133 19 180 29 14 3 45 9 70 12 25 3
49 8 53 11 4 3 27 7 50 10 22 2 46 7 52 11 5 3 21 7 35 9 14 1 77 16 140 32
63 17 122 33 130 35 68 18 111 30 145 41 22 7 81 25 130 40 50 15 95 30 100
34 6 3 12 6 15 6 17 2 117 39 127 48 7 5 13 7 13 3 0 -4 13 0 30 9 40 21 64
20 55 -2 -29 -69 -132 -379 -166 -496 -22 -78 -47 -165 -55 -194 -9 -29 -13
-57 -9 -63 3 -5 2 -10 -2 -10 -7 0 -31 -93 -49 -185 -1 -5 -5 -23 -8 -40 -21
-104 -62 -353 -71 -435 -1 -14 -5 -47 -9 -75 -14 -111 -17 -160 -31 -405 -2
-33 2 -58 9 -62 8 -6 8 -8 -1 -8 -9 0 -12 -32 -12 -115 1 -85 4 -113 12 -108
8 4 8 1 -1 -9 -14 -18 -7 -255 9 -275 7 -7 6 -14 -1 -18 -6 -3 -8 -9 -6 -13 2
-4 7 -43 10 -87 3 -44 8 -93 11 -110 5 -37 14 -105 21 -165 3 -25 12 -83 20
-130 9 -47 18 -102 21 -123 3 -20 8 -37 12 -37 3 0 7 -16 8 -36 2 -49 44 -226
57 -243 6 -8 10 -22 8 -32 -2 -10 5 -44 14 -76 9 -32 17 -60 17 -63 0 -3 9
-30 19 -60 11 -30 21 -59 22 -65 1 -5 5 -16 9 -22 5 -7 6 -13 3 -13 -3 0 13
-51 35 -112 22 -62 47 -133 55 -158 9 -25 22 -59 29 -75 13 -29 36 -84 40 -95
1 -3 6 -16 12 -30 6 -14 20 -47 31 -75 35 -86 135 -290 146 -297 6 -4 8 -8 3
-8 -4 0 16 -44 44 -98 77 -144 90 -168 181 -317 46 -75 88 -144 93 -154 40
-68 190 -284 201 -288 8 -3 11 -9 9 -14 -3 -4 3 -17 13 -27 11 -11 21 -23 23
-28 10 -22 112 -154 120 -154 5 0 9 -5 9 -10 0 -9 113 -156 131 -170 3 -3 32
-36 65 -75 76 -91 107 -126 177 -199 31 -33 57 -61 57 -63 0 -4 284 -285 353
-348 115 -106 201 -183 231 -206 16 -13 41 -33 54 -46 13 -12 29 -20 35 -16 5
3 7 2 4 -4 -7 -11 139 -130 155 -125 5 1 7 -2 3 -8 -3 -5 -3 -10 2 -10 4 0 24
-14 43 -30 19 -16 38 -30 42 -30 4 0 18 -10 31 -23 13 -12 33 -29 46 -37 22
-15 172 -121 282 -200 31 -22 60 -40 64 -40 5 0 23 -11 41 -25 18 -14 35 -25
39 -25 3 0 11 -5 18 -11 7 -6 29 -20 49 -32 21 -12 85 -50 142 -84 58 -35 108
-63 112 -63 3 0 19 -9 34 -20 27 -20 399 -209 476 -242 21 -10 65 -29 96 -43
31 -14 60 -25 63 -25 3 0 31 -11 61 -25 30 -14 60 -25 67 -25 7 0 17 -4 22 -9
9 -8 172 -69 200 -75 6 -1 15 -4 20 -8 12 -7 148 -48 155 -46 3 1 14 -4 26
-10 11 -6 32 -13 45 -16 13 -3 90 -23 170 -44 80 -21 156 -38 167 -37 12 1 22
-2 22 -5 0 -8 128 -31 191 -35 20 -1 40 -5 45 -8 5 -3 36 -8 69 -12 33 -4 74
-8 90 -10 35 -4 190 -15 253 -18 23 -2 42 1 42 6 0 5 6 5 13 0 13 -11 92 -11
103 -1 3 4 16 3 29 -2 13 -5 25 -7 26 -5 9 8 190 18 351 19 102 1 174 5 170
10 -3 5 1 5 9 0 18 -11 15168 -13 15191 -2 9 4 19 5 21 1 10 -16 1091 -5 1262
12 17 1 68 6 115 10 47 3 96 8 110 10 14 3 54 7 90 10 36 3 72 8 80 10 8 2 38
7 65 10 104 12 117 14 200 30 17 4 49 9 72 12 24 3 41 8 39 12 -2 3 10 6 27 5
18 -1 46 3 62 8 17 5 41 10 55 12 14 3 57 12 95 21 39 9 81 19 95 21 14 3 54
13 90 24 36 10 89 23 118 30 28 7 52 16 52 22 0 5 5 6 10 3 6 -3 25 -2 43 4
17 6 97 31 177 56 80 26 152 49 160 52 8 4 18 7 22 7 3 1 10 4 14 9 4 4 13 7
19 7 7 0 30 8 51 17 22 9 41 17 44 18 3 1 17 5 32 9 16 5 26 11 24 15 -2 3 6
7 18 7 12 1 44 11 71 23 69 30 85 37 123 51 17 7 32 17 32 22 0 5 4 7 9 4 14
-9 42 5 34 17 -3 6 -1 7 5 3 13 -8 272 112 272 126 0 5 4 6 10 3 5 -3 20 1 32
8 13 8 66 37 118 64 143 76 163 87 178 100 7 7 24 16 38 19 13 3 24 9 24 13 0
3 29 22 65 41 36 19 65 38 65 43 0 4 7 7 15 7 8 0 15 5 15 10 0 6 7 10 15 10
8 0 24 9 35 20 11 11 24 20 28 20 4 0 73 45 152 100 80 56 160 110 178 121 17
12 32 25 32 30 0 5 5 9 11 9 6 0 47 29 92 65 45 36 89 71 97 78 118 94 159
131 153 140 -3 6 -1 7 6 3 7 -5 27 6 49 27 20 20 64 59 97 89 33 29 98 90 144
135 47 46 86 83 88 83 2 0 113 112 113 115 0 1 28 31 63 67 34 35 85 91 112
122 28 32 67 76 88 99 22 23 51 58 65 77 15 19 29 37 32 40 26 23 280 358 280
369 0 5 3 11 8 13 11 5 102 135 102 146 0 6 4 12 8 14 11 4 145 213 215 334
16 27 41 72 58 99 16 28 32 57 36 65 3 8 15 27 25 42 10 14 18 33 18 41 0 9 4
17 9 19 7 2 163 314 214 428 47 105 74 170 76 183 0 4 8 21 16 37 9 17 13 30
9 30 -4 0 -2 6 4 13 13 15 62 137 56 137 -3 0 2 12 10 27 24 44 67 174 60 184
-3 5 -1 9 4 9 7 0 70 183 87 255 3 11 12 45 20 75 25 86 82 311 90 355 5 22
10 45 11 50 2 6 6 24 9 40 3 17 8 41 10 55 3 14 8 39 10 55 3 17 8 44 12 60 4
17 7 32 8 35 1 3 4 28 9 55 4 28 10 64 13 80 3 17 6 53 7 82 1 28 4 49 7 47 4
-2 10 27 13 66 4 38 9 79 11 92 9 52 21 197 32 383 14 237 6 821 -12 915 -2
11 -7 59 -10 108 -4 48 -8 89 -10 92 -2 3 -6 41 -10 85 -4 44 -9 83 -11 86 -1
3 -6 28 -9 55 -7 48 -31 199 -35 219 -6 26 1 35 23 30 12 -3 34 -7 50 -10 15
-3 37 -7 50 -10 12 -2 42 -7 67 -9 25 -3 56 -8 69 -10 13 -3 47 -8 75 -11 28
-2 62 -7 76 -10 14 -3 52 -7 85 -10 33 -3 69 -7 80 -9 11 -2 26 2 34 8 11 8
13 8 7 -1 -5 -10 4 -13 36 -14 24 0 59 -2 78 -4 185 -18 572 -23 810 -11 145
7 178 10 300 21 122 11 155 15 185 19 17 3 53 8 80 11 77 9 170 22 215 31 14
3 40 7 59 10 19 2 53 9 78 14 24 6 60 13 79 16 49 8 58 9 139 29 39 9 80 18
91 21 12 2 82 20 155 39 74 20 140 37 147 37 6 1 12 5 12 10 0 5 4 7 8 4 7 -4
200 50 262 74 14 5 39 15 55 21 17 7 37 13 46 15 8 2 58 20 110 40 52 20 99
37 104 38 6 2 23 8 38 14 16 7 30 12 32 12 3 0 29 11 59 25 30 14 57 25 60 25
2 0 40 16 83 36 43 19 110 50 148 67 166 75 467 234 622 328 39 24 105 64 145
88 40 25 103 66 141 93 37 26 69 48 72 48 7 0 174 119 235 167 8 7 40 30 70
52 30 22 62 46 70 53 8 7 30 26 50 41 54 44 107 87 128 105 11 10 44 37 73 62
29 25 79 70 111 101 32 30 58 53 58 51 0 -3 34 28 75 69 42 41 80 76 85 77 6
2 10 11 10 19 0 9 3 14 6 10 8 -8 34 18 34 34 0 7 3 10 6 7 3 -3 26 17 52 45
26 28 62 65 81 83 21 20 30 37 26 45 -5 8 -4 10 3 5 7 -4 28 11 49 35 21 23
43 47 48 53 20 23 81 93 122 141 23 28 50 60 60 72 11 12 28 34 39 49 10 15
33 43 50 63 17 20 41 52 54 71 14 19 29 40 35 46 5 7 18 22 27 35 64 90 135
190 146 205 39 58 142 216 142 219 0 2 13 23 29 47 16 24 38 59 49 79 42 75
47 84 58 99 7 8 33 56 59 105 25 50 58 109 71 133 14 24 26 52 27 62 1 10 4
17 7 15 6 -4 41 67 111 220 17 39 42 93 55 122 13 28 24 55 24 58 0 5 24 63
50 120 38 83 140 376 135 386 -3 4 -1 9 4 11 8 2 86 243 96 297 2 9 4 16 5 16
1 0 3 7 5 15 1 8 11 44 20 80 9 36 19 74 21 84 2 10 8 33 13 50 12 36 77 353
85 411 3 22 15 99 26 170 23 148 26 174 36 265 3 36 8 79 10 95 2 17 6 74 8
128 3 53 7 100 9 105 2 4 5 54 6 112 1 58 4 129 5 157 2 34 0 50 -7 46 -6 -4
-7 -1 -1 8 12 19 13 610 1 602 -6 -4 -7 -1 -1 8 13 21 15 121 2 113 -7 -5 -8
-2 -2 7 5 8 10 3195 10 7844 1 4307 5 7862 10 7900 5 39 8 168 8 289 -1 175
-4 220 -15 227 -8 5 -9 9 -3 9 9 0 11 31 4 50 -1 3 -2 7 -2 10 0 3 -4 39 -9
80 -5 41 -12 98 -15 125 -3 28 -8 54 -11 58 -3 5 -7 23 -9 40 -7 47 -41 212
-44 212 -1 0 -3 9 -5 20 -4 28 -30 127 -69 260 -1 6 -8 30 -15 55 -7 25 -18
51 -23 58 -6 6 -8 12 -5 12 3 0 -10 44 -30 98 -19 53 -38 108 -43 122 -19 61
-123 306 -177 420 -33 69 -68 144 -78 167 -10 23 -23 39 -28 36 -6 -3 -7 -2
-4 4 10 15 -158 326 -263 488 -22 33 -44 70 -49 82 -6 12 -19 31 -31 43 -11
11 -21 23 -21 28 -4 19 -23 52 -31 52 -4 0 -8 6 -8 13 0 7 -9 23 -20 35 -11
12 -20 24 -20 27 0 7 -61 94 -163 233 -41 56 -72 90 -79 86 -7 -5 -8 -3 -3 5
4 8 -6 29 -26 54 -18 23 -38 48 -44 55 -5 7 -17 21 -25 31 -8 9 -27 32 -41 51
-15 19 -35 45 -45 56 -11 12 -35 41 -54 64 -52 62 -65 77 -143 165 -60 67
-223 239 -263 279 -195 190 -246 236 -256 230 -6 -4 -8 -3 -5 3 4 6 -21 35
-55 64 -34 30 -82 73 -107 96 -25 24 -52 40 -59 38 -7 -3 -11 -1 -8 4 5 8 -20
31 -124 115 -25 20 -50 40 -56 45 -6 5 -60 45 -120 90 -60 44 -120 88 -134 99
-14 10 -81 56 -150 102 -69 45 -137 91 -152 101 -15 10 -30 19 -32 19 -3 0
-32 17 -63 37 -64 42 -125 77 -163 96 -14 6 -27 14 -30 17 -14 14 -430 222
-530 265 -36 15 -78 33 -95 40 -120 52 -212 85 -223 80 -7 -2 -11 -1 -8 4 3 5
-6 12 -22 17 -31 9 -32 9 -54 17 -40 15 -53 20 -63 23 -5 1 -53 16 -105 34
-52 17 -102 33 -110 35 -8 3 -41 11 -73 20 -32 9 -63 13 -69 9 -7 -4 -8 -3 -4
4 4 7 1 12 -6 13 -16 1 -20 2 -148 33 -106 27 -166 38 -207 40 -13 1 -23 4
-23 7 0 3 -39 12 -87 19 -109 17 -112 17 -143 23 -14 3 -50 8 -80 11 -30 4
-77 9 -105 13 -27 3 -69 6 -92 7 -24 1 -43 3 -43 6 0 3 -21 6 -48 6 -26 1
-119 5 -207 9 -241 10 -265 10 -265 5 0 -3 -82 -6 -182 -8 -99 -1 -186 -6
-192 -11 -7 -6 -17 -6 -25 -2 -7 5 -31 5 -54 1 -23 -5 -78 -11 -122 -15 -44
-3 -89 -8 -100 -10 -46 -10 -101 -17 -118 -17 -9 1 -15 -3 -12 -8 3 -4 -3 -6
-13 -3 -10 2 -68 -5 -128 -17 -60 -12 -122 -24 -139 -26 -41 -7 -233 -51 -273
-63 -18 -5 -35 -10 -37 -10 -23 1 -64 -14 -60 -22 4 -5 -1 -6 -9 -3 -23 9
-413 -116 -598 -191 -10 -4 -18 -5 -18 -1 0 9 30 99 41 121 17 36 98 285 92
285 -3 0 -1 6 4 13 16 20 36 105 28 118 -5 7 -4 10 2 6 8 -5 27 47 50 138 28
113 33 141 28 152 -2 8 -1 12 4 8 8 -4 21 45 26 97 1 10 4 21 8 24 4 4 7 20 7
35 0 15 4 39 9 53 6 13 12 42 15 63 3 21 10 67 16 103 13 74 15 86 24 155 13
99 15 111 21 170 3 33 8 74 10 90 2 17 7 85 11 150 4 66 8 136 9 155 1 19 -2
41 -8 48 -6 8 -6 12 1 12 13 0 14 257 1 266 -5 3 -6 10 -3 16 10 15 14 58 6
58 -4 0 -7 42 -8 93 -1 119 -8 227 -14 227 -3 0 -6 17 -6 38 -2 56 -21 216
-34 287 -5 28 -12 68 -15 91 -3 22 -10 55 -15 72 -5 18 -6 32 -3 32 3 0 1 6
-4 13 -5 6 -10 24 -11 40 -3 39 -82 360 -93 373 -5 6 -7 13 -4 16 3 3 -2 25
-11 49 -8 24 -17 52 -19 61 -12 56 -40 126 -48 121 -6 -3 -7 -1 -3 6 7 10 -18
99 -43 156 -5 11 -26 65 -46 120 -21 55 -42 104 -46 110 -5 5 -9 15 -9 21 0 7
-15 45 -33 86 -19 40 -44 96 -57 125 -13 29 -27 50 -31 47 -5 -3 -7 1 -4 8 3
7 -9 40 -26 73 -17 33 -49 95 -71 138 -21 42 -43 75 -48 72 -6 -3 -7 0 -4 8 6
17 -113 223 -127 219 -6 -1 -8 2 -5 7 4 5 -10 37 -30 71 -36 62 -262 401 -273
410 -3 3 -17 21 -31 40 -13 19 -28 40 -32 45 -4 6 -34 44 -65 85 -69 89 -63
82 -158 198 -42 51 -80 90 -84 87 -5 -2 -8 1 -7 8 2 27 -306 354 -552 586 -35
32 -59 48 -70 44 -12 -3 -14 -2 -4 4 9 7 -4 24 -50 64 -34 30 -81 71 -103 91
-22 21 -46 36 -53 33 -7 -3 -11 -1 -8 4 6 9 -4 18 -129 118 -33 26 -65 53 -71
58 -6 6 -22 17 -34 25 -12 8 -36 27 -54 42 -17 15 -34 28 -38 28 -4 0 -13 6
-20 13 -35 33 -126 97 -318 224 -80 53 -157 104 -172 114 -15 11 -32 19 -38
19 -5 0 -10 5 -10 10 0 6 -5 10 -11 10 -6 0 -29 13 -52 28 -23 16 -49 32 -57
35 -8 4 -33 18 -55 31 -22 14 -60 35 -85 47 -25 12 -58 31 -73 42 -15 10 -35
16 -43 13 -8 -3 -12 -2 -9 4 7 11 -425 225 -515 255 -3 1 -16 6 -30 12 -14 6
-56 23 -95 38 -38 15 -79 31 -90 36 -11 4 -40 15 -65 24 -25 9 -64 22 -88 31
-23 8 -48 12 -54 8 -6 -4 -8 -3 -5 3 4 6 -3 13 -16 16 -12 3 -60 17 -107 31
-47 15 -94 28 -105 30 -11 2 -32 9 -46 14 -19 8 -30 7 -39 -1 -10 -9 -11 -9
-6 0 8 14 -66 37 -95 30 -11 -3 -17 -2 -14 3 3 4 -8 10 -23 13 -37 7 -83 16
-108 22 -53 12 -102 19 -131 20 -17 0 -29 3 -26 8 2 4 -8 7 -24 8 -30 1 -63 5
-101 14 -18 4 -22 2 -16 -7 6 -10 5 -10 -7 -1 -8 6 -45 14 -84 17 -161 15
-165 15 -158 3 5 -9 3 -9 -8 -1 -8 6 -48 12 -89 13 -41 2 -77 4 -81 6 -3 3 -8
3 -10 1z m-1584 -3975 c-9 -8 -36 -10 -30 -2 2 4 11 8 20 8 8 0 13 -3 10 -6z
m-17611 -2559 c3 -5 -1 -9 -9 -9 -8 0 -12 4 -9 9 3 4 7 8 9 8 2 0 6 -4 9 -8z
m31923 -4477 c0 -8 -4 -12 -9 -9 -5 3 -6 10 -3 15 9 13 12 11 12 -6z m-29027
-1 c0 -8 -19 -13 -24 -6 -3 5 1 9 9 9 8 0 15 -2 15 -3z m15186 -159 c-1 -8 -5
-17 -8 -21 -5 -4 -4 16 1 34 3 9 9 -1 7 -13z m-19521 -3204 c3 -5 2 -12 -3
-15 -5 -3 -9 1 -9 9 0 17 3 19 12 6z m-6719 -10236 c-1 -8 -5 -17 -8 -21 -5
-4 -4 16 1 34 3 9 9 -1 7 -13z m0 -640 c-1 -8 -5 -17 -8 -21 -5 -4 -4 16 1 34
3 9 9 -1 7 -13z m14238 -6731 c3 -8 2 -12 -4 -9 -6 3 -10 10 -10 16 0 14 7 11
14 -7z m6242 -3200 c1 -9 0 -13 -4 -10 -3 4 -7 14 -8 22 -1 9 0 13 4 10 3 -4
7 -14 8 -22z m-16152 -5596 c-3 -4 -9 -8 -15 -8 -5 0 -9 4 -9 8 0 5 7 9 15 9
8 0 12 -4 9 -9z"/>
</g>
</svg>
